<svg xmlns="http://www.w3.org/2000/svg" xmlns:xlink="http://www.w3.org/1999/xlink" contentStyleType="text/css" height="1171px" preserveAspectRatio="none" style="width:2281px;height:1171px;background:#FFFFFF;" version="1.1" viewBox="0 0 2281 1171" width="2281px" zoomAndPan="magnify"><defs/><g><!--cluster com--><g id="cluster_com"><path d="M8.5,338.0137 L38.2861,338.0137 A3.75,3.75 0 0 1 40.7861,340.5137 L47.7861,362.6348 L2271.5,362.6348 A2.5,2.5 0 0 1 2274,365.1348 L2274,1161.5137 A2.5,2.5 0 0 1 2271.5,1164.0137 L8.5,1164.0137 A2.5,2.5 0 0 1 6,1161.5137 L6,340.5137 A2.5,2.5 0 0 1 8.5,338.0137 " fill="none" style="stroke:#000000;stroke-width:1.5;"/><line style="stroke:#000000;stroke-width:1.5;" x1="6" x2="47.7861" y1="362.6348" y2="362.6348"/><text fill="#000000" font-family="sans-serif" font-size="14" font-weight="bold" lengthAdjust="spacing" textLength="28.7861" x="10" y="355.1211">com</text></g><!--cluster ej--><g id="cluster_ej"><path d="M32.5,383.0137 L45.1758,383.0137 A3.75,3.75 0 0 1 47.6758,385.5137 L54.6758,407.6348 L2247.5,407.6348 A2.5,2.5 0 0 1 2250,410.1348 L2250,1137.5137 A2.5,2.5 0 0 1 2247.5,1140.0137 L32.5,1140.0137 A2.5,2.5 0 0 1 30,1137.5137 L30,385.5137 A2.5,2.5 0 0 1 32.5,383.0137 " fill="none" style="stroke:#000000;stroke-width:1.5;"/><line style="stroke:#000000;stroke-width:1.5;" x1="30" x2="54.6758" y1="407.6348" y2="407.6348"/><text fill="#000000" font-family="sans-serif" font-size="14" font-weight="bold" lengthAdjust="spacing" textLength="11.6758" x="34" y="400.1211">ej</text></g><!--cluster transfers--><g id="cluster_transfers"><path d="M56.5,428.0137 L117.417,428.0137 A3.75,3.75 0 0 1 119.917,430.5137 L126.917,452.6348 L2223.5,452.6348 A2.5,2.5 0 0 1 2226,455.1348 L2226,1113.5137 A2.5,2.5 0 0 1 2223.5,1116.0137 L56.5,1116.0137 A2.5,2.5 0 0 1 54,1113.5137 L54,430.5137 A2.5,2.5 0 0 1 56.5,428.0137 " fill="none" style="stroke:#000000;stroke-width:1.5;"/><line style="stroke:#000000;stroke-width:1.5;" x1="54" x2="126.917" y1="452.6348" y2="452.6348"/><text fill="#000000" font-family="sans-serif" font-size="14" font-weight="bold" lengthAdjust="spacing" textLength="59.917" x="58" y="445.1211">transfers</text></g><!--cluster steps--><g id="cluster_steps"><path d="M1042.5,566.0137 L1080.0723,566.0137 A3.75,3.75 0 0 1 1082.5723,568.5137 L1089.5723,590.6348 L2199.5,590.6348 A2.5,2.5 0 0 1 2202,593.1348 L2202,1089.5137 A2.5,2.5 0 0 1 2199.5,1092.0137 L1042.5,1092.0137 A2.5,2.5 0 0 1 1040,1089.5137 L1040,568.5137 A2.5,2.5 0 0 1 1042.5,566.0137 " fill="none" style="stroke:#000000;stroke-width:1.5;"/><line style="stroke:#000000;stroke-width:1.5;" x1="1040" x2="1089.5723" y1="590.6348" y2="590.6348"/><text fill="#000000" font-family="sans-serif" font-size="14" font-weight="bold" lengthAdjust="spacing" textLength="36.5723" x="1044" y="583.1211">steps</text></g><!--cluster pages--><g id="cluster_pages"><path d="M80.5,473.0137 L121.9619,473.0137 A3.75,3.75 0 0 1 124.4619,475.5137 L131.4619,497.6348 L1013.5,497.6348 A2.5,2.5 0 0 1 1016,500.1348 L1016,869.5137 A2.5,2.5 0 0 1 1013.5,872.0137 L80.5,872.0137 A2.5,2.5 0 0 1 78,869.5137 L78,475.5137 A2.5,2.5 0 0 1 80.5,473.0137 " fill="none" style="stroke:#000000;stroke-width:1.5;"/><line style="stroke:#000000;stroke-width:1.5;" x1="78" x2="131.4619" y1="497.6348" y2="497.6348"/><text fill="#000000" font-family="sans-serif" font-size="14" font-weight="bold" lengthAdjust="spacing" textLength="40.4619" x="82" y="490.1211">pages</text></g><!--cluster net--><g id="cluster_net"><path d="M433.5,6.0137 L455.5,6.0137 A3.75,3.75 0 0 1 458,8.5137 L465,30.6348 L710.5,30.6348 A2.5,2.5 0 0 1 713,33.1348 L713,311.5137 A2.5,2.5 0 0 1 710.5,314.0137 L433.5,314.0137 A2.5,2.5 0 0 1 431,311.5137 L431,8.5137 A2.5,2.5 0 0 1 433.5,6.0137 " fill="none" style="stroke:#000000;stroke-width:1.5;"/><line style="stroke:#000000;stroke-width:1.5;" x1="431" x2="465" y1="30.6348" y2="30.6348"/><text fill="#000000" font-family="sans-serif" font-size="14" font-weight="bold" lengthAdjust="spacing" textLength="21" x="435" y="23.1211">net</text></g><!--cluster serenitybdd--><g id="cluster_serenitybdd"><path d="M457.5,51.0137 L537.8516,51.0137 A3.75,3.75 0 0 1 540.3516,53.5137 L547.3516,75.6348 L686.5,75.6348 A2.5,2.5 0 0 1 689,78.1348 L689,287.5137 A2.5,2.5 0 0 1 686.5,290.0137 L457.5,290.0137 A2.5,2.5 0 0 1 455,287.5137 L455,53.5137 A2.5,2.5 0 0 1 457.5,51.0137 " fill="none" style="stroke:#000000;stroke-width:1.5;"/><line style="stroke:#000000;stroke-width:1.5;" x1="455" x2="547.3516" y1="75.6348" y2="75.6348"/><text fill="#000000" font-family="sans-serif" font-size="14" font-weight="bold" lengthAdjust="spacing" textLength="79.3516" x="459" y="68.1211">serenitybdd</text></g><!--cluster core--><g id="cluster_core"><path d="M481.5,96.0137 L512.0723,96.0137 A3.75,3.75 0 0 1 514.5723,98.5137 L521.5723,120.6348 L662.5,120.6348 A2.5,2.5 0 0 1 665,123.1348 L665,263.5137 A2.5,2.5 0 0 1 662.5,266.0137 L481.5,266.0137 A2.5,2.5 0 0 1 479,263.5137 L479,98.5137 A2.5,2.5 0 0 1 481.5,96.0137 " fill="none" style="stroke:#000000;stroke-width:1.5;"/><line style="stroke:#000000;stroke-width:1.5;" x1="479" x2="521.5723" y1="120.6348" y2="120.6348"/><text fill="#000000" font-family="sans-serif" font-size="14" font-weight="bold" lengthAdjust="spacing" textLength="29.5723" x="483" y="113.1211">core</text></g><!--cluster pages--><g id="cluster_pages"><path d="M505.5,141.0137 L546.9619,141.0137 A3.75,3.75 0 0 1 549.4619,143.5137 L556.4619,165.6348 L638.5,165.6348 A2.5,2.5 0 0 1 641,168.1348 L641,239.5137 A2.5,2.5 0 0 1 638.5,242.0137 L505.5,242.0137 A2.5,2.5 0 0 1 503,239.5137 L503,143.5137 A2.5,2.5 0 0 1 505.5,141.0137 " fill="none" style="stroke:#000000;stroke-width:1.5;"/><line style="stroke:#000000;stroke-width:1.5;" x1="503" x2="556.4619" y1="165.6348" y2="165.6348"/><text fill="#000000" font-family="sans-serif" font-size="14" font-weight="bold" lengthAdjust="spacing" textLength="40.4619" x="507" y="158.1211">pages</text></g><!--class BaseSteps--><g id="elem_BaseSteps"><rect codeLine="1" fill="#F1F1F1" height="159.7266" id="BaseSteps" rx="2.5" ry="2.5" style="stroke:#181818;stroke-width:0.5;" width="292.1436" x="1539" y="603.0137"/><ellipse cx="1646.9668" cy="619.0137" fill="#ADD1B2" rx="11" ry="11" style="stroke:#181818;stroke-width:1.0;"/><path d="M1649.7324,614.8887 Q1649.8887,614.6699 1650.0762,614.5605 Q1650.2637,614.4512 1650.4824,614.4512 Q1650.8574,614.4512 1651.0918,614.7168 Q1651.3262,614.9668 1651.3262,615.5762 L1651.3262,617.0293 Q1651.3262,617.6387 1651.0918,617.9043 Q1650.8574,618.1699 1650.4824,618.1699 Q1650.1387,618.1699 1649.9355,617.9668 Q1649.7324,617.7793 1649.623,617.2637 Q1649.5762,616.9043 1649.3887,616.7168 Q1649.0605,616.3418 1648.4512,616.123 Q1647.8418,615.9043 1647.2168,615.9043 Q1646.4512,615.9043 1645.8105,616.2324 Q1645.1855,616.5605 1644.6855,617.3105 Q1644.2012,618.0605 1644.2012,619.0918 L1644.2012,620.1855 Q1644.2012,621.4199 1645.0918,622.248 Q1645.9824,623.0605 1647.5762,623.0605 Q1648.5137,623.0605 1649.1699,622.8105 Q1649.5605,622.6543 1649.9824,622.2168 Q1650.248,621.9512 1650.3887,621.873 Q1650.5449,621.7949 1650.748,621.7949 Q1651.0762,621.7949 1651.3262,622.0605 Q1651.5918,622.3105 1651.5918,622.6543 Q1651.5918,622.998 1651.248,623.4043 Q1650.748,623.9824 1649.9512,624.3105 Q1648.873,624.7637 1647.5762,624.7637 Q1646.0605,624.7637 1644.8574,624.1387 Q1643.873,623.6387 1643.1855,622.5762 Q1642.498,621.498 1642.498,620.2168 L1642.498,619.0605 Q1642.498,617.7324 1643.1074,616.5918 Q1643.7324,615.4355 1644.8262,614.8262 Q1645.9199,614.2012 1647.1543,614.2012 Q1647.8887,614.2012 1648.5293,614.373 Q1649.1855,614.5293 1649.7324,614.8887 Z " fill="#000000"/><text fill="#000000" font-family="sans-serif" font-size="14" lengthAdjust="spacing" textLength="67.71" x="1667.4668" y="624.8105">BaseSteps</text><line style="stroke:#181818;stroke-width:0.5;" x1="1540" x2="1830.1436" y1="635.0137" y2="635.0137"/><ellipse cx="1550" cy="649.8242" fill="none" rx="3" ry="3" style="stroke:#038048;stroke-width:1.0;"/><text fill="#000000" font-family="sans-serif" font-size="14" lengthAdjust="spacing" textLength="203.8955" x="1559" y="654.1211">NavigateActions navigateActions</text><ellipse cx="1550" cy="668.4453" fill="none" rx="3" ry="3" style="stroke:#038048;stroke-width:1.0;"/><text fill="#000000" font-family="sans-serif" font-size="14" lengthAdjust="spacing" textLength="182.0889" x="1559" y="672.7422">SearchActions searchActions</text><ellipse cx="1550" cy="687.0664" fill="none" rx="3" ry="3" style="stroke:#038048;stroke-width:1.0;"/><text fill="#000000" font-family="sans-serif" font-size="14" lengthAdjust="spacing" textLength="266.1436" x="1559" y="691.3633">SearchResultSidebar searchResultSidebar</text><ellipse cx="1550" cy="705.6875" fill="none" rx="3" ry="3" style="stroke:#038048;stroke-width:1.0;"/><text fill="#000000" font-family="sans-serif" font-size="14" lengthAdjust="spacing" textLength="133.1162" x="1559" y="709.9844">LoginPage loginPage</text><ellipse cx="1550" cy="724.3086" fill="none" rx="3" ry="3" style="stroke:#038048;stroke-width:1.0;"/><text fill="#000000" font-family="sans-serif" font-size="14" lengthAdjust="spacing" textLength="168.8682" x="1559" y="728.6055">TransferPage transferPage</text><ellipse cx="1550" cy="742.9297" fill="none" rx="3" ry="3" style="stroke:#038048;stroke-width:1.0;"/><text fill="#000000" font-family="sans-serif" font-size="14" lengthAdjust="spacing" textLength="150.2471" x="1559" y="747.2266">LogoutPage logoutPage</text><line style="stroke:#181818;stroke-width:0.5;" x1="1540" x2="1830.1436" y1="754.7402" y2="754.7402"/></g><!--class BankTransferSteps--><g id="elem_BankTransferSteps"><rect codeLine="20" fill="#F1F1F1" height="159.7266" id="BankTransferSteps" rx="2.5" ry="2.5" style="stroke:#181818;stroke-width:0.5;" width="443.8467" x="1056" y="916.0137"/><ellipse cx="1213.7563" cy="932.0137" fill="#ADD1B2" rx="11" ry="11" style="stroke:#181818;stroke-width:1.0;"/><path d="M1216.522,927.8887 Q1216.6782,927.6699 1216.8657,927.5605 Q1217.0532,927.4512 1217.272,927.4512 Q1217.647,927.4512 1217.8813,927.7168 Q1218.1157,927.9668 1218.1157,928.5762 L1218.1157,930.0293 Q1218.1157,930.6387 1217.8813,930.9043 Q1217.647,931.1699 1217.272,931.1699 Q1216.9282,931.1699 1216.7251,930.9668 Q1216.522,930.7793 1216.4126,930.2637 Q1216.3657,929.9043 1216.1782,929.7168 Q1215.8501,929.3418 1215.2407,929.123 Q1214.6313,928.9043 1214.0063,928.9043 Q1213.2407,928.9043 1212.6001,929.2324 Q1211.9751,929.5605 1211.4751,930.3105 Q1210.9907,931.0605 1210.9907,932.0918 L1210.9907,933.1855 Q1210.9907,934.4199 1211.8813,935.248 Q1212.772,936.0605 1214.3657,936.0605 Q1215.3032,936.0605 1215.9595,935.8105 Q1216.3501,935.6543 1216.772,935.2168 Q1217.0376,934.9512 1217.1782,934.873 Q1217.3345,934.7949 1217.5376,934.7949 Q1217.8657,934.7949 1218.1157,935.0605 Q1218.3813,935.3105 1218.3813,935.6543 Q1218.3813,935.998 1218.0376,936.4043 Q1217.5376,936.9824 1216.7407,937.3105 Q1215.6626,937.7637 1214.3657,937.7637 Q1212.8501,937.7637 1211.647,937.1387 Q1210.6626,936.6387 1209.9751,935.5762 Q1209.2876,934.498 1209.2876,933.2168 L1209.2876,932.0605 Q1209.2876,930.7324 1209.897,929.5918 Q1210.522,928.4355 1211.6157,927.8262 Q1212.7095,927.2012 1213.9438,927.2012 Q1214.6782,927.2012 1215.3188,927.373 Q1215.9751,927.5293 1216.522,927.8887 Z " fill="#000000"/><text fill="#000000" font-family="sans-serif" font-size="14" lengthAdjust="spacing" textLength="119.834" x="1234.2563" y="937.8105">BankTransferSteps</text><line style="stroke:#181818;stroke-width:0.5;" x1="1057" x2="1498.8467" y1="948.0137" y2="948.0137"/><line style="stroke:#181818;stroke-width:0.5;" x1="1057" x2="1498.8467" y1="956.0137" y2="956.0137"/><ellipse cx="1067" cy="970.8242" fill="#84BE84" rx="3" ry="3" style="stroke:#038048;stroke-width:1.0;"/><text fill="#000000" font-family="sans-serif" font-size="14" lengthAdjust="spacing" textLength="195.2891" x="1076" y="975.1211">void selectTransferType(String)</text><ellipse cx="1067" cy="989.4453" fill="#84BE84" rx="3" ry="3" style="stroke:#038048;stroke-width:1.0;"/><text fill="#000000" font-family="sans-serif" font-size="14" lengthAdjust="spacing" textLength="316.709" x="1076" y="993.7422">void enterTransferDetailsAndSubmit(double,String)</text><ellipse cx="1067" cy="1008.0664" fill="#84BE84" rx="3" ry="3" style="stroke:#038048;stroke-width:1.0;"/><text fill="#000000" font-family="sans-serif" font-size="14" lengthAdjust="spacing" textLength="132.2549" x="1076" y="1012.3633">void submitTransfer()</text><ellipse cx="1067" cy="1026.6875" fill="#84BE84" rx="3" ry="3" style="stroke:#038048;stroke-width:1.0;"/><text fill="#000000" font-family="sans-serif" font-size="14" lengthAdjust="spacing" textLength="417.8467" x="1076" y="1030.9844">void userEntersTransferDetailsWithInsufficientFunds(double,String)</text><ellipse cx="1067" cy="1045.3086" fill="#84BE84" rx="3" ry="3" style="stroke:#038048;stroke-width:1.0;"/><text fill="#000000" font-family="sans-serif" font-size="14" lengthAdjust="spacing" textLength="207.7715" x="1076" y="1049.6055">void theTransferShouldBe(String)</text><ellipse cx="1067" cy="1063.9297" fill="#84BE84" rx="3" ry="3" style="stroke:#038048;stroke-width:1.0;"/><text fill="#000000" font-family="sans-serif" font-size="14" lengthAdjust="spacing" textLength="276.2471" x="1076" y="1068.2266">void userShouldSeeAnErrorMessage(String)</text></g><!--class LogoutSteps--><g id="elem_LogoutSteps"><rect codeLine="29" fill="#F1F1F1" height="122.4844" id="LogoutSteps" rx="2.5" ry="2.5" style="stroke:#181818;stroke-width:0.5;" width="299.9365" x="1535" y="935.0137"/><ellipse cx="1641.4082" cy="951.0137" fill="#ADD1B2" rx="11" ry="11" style="stroke:#181818;stroke-width:1.0;"/><path d="M1644.1738,946.8887 Q1644.3301,946.6699 1644.5176,946.5605 Q1644.7051,946.4512 1644.9238,946.4512 Q1645.2988,946.4512 1645.5332,946.7168 Q1645.7676,946.9668 1645.7676,947.5762 L1645.7676,949.0293 Q1645.7676,949.6387 1645.5332,949.9043 Q1645.2988,950.1699 1644.9238,950.1699 Q1644.5801,950.1699 1644.377,949.9668 Q1644.1738,949.7793 1644.0645,949.2637 Q1644.0176,948.9043 1643.8301,948.7168 Q1643.502,948.3418 1642.8926,948.123 Q1642.2832,947.9043 1641.6582,947.9043 Q1640.8926,947.9043 1640.252,948.2324 Q1639.627,948.5605 1639.127,949.3105 Q1638.6426,950.0605 1638.6426,951.0918 L1638.6426,952.1855 Q1638.6426,953.4199 1639.5332,954.248 Q1640.4238,955.0605 1642.0176,955.0605 Q1642.9551,955.0605 1643.6113,954.8105 Q1644.002,954.6543 1644.4238,954.2168 Q1644.6895,953.9512 1644.8301,953.873 Q1644.9863,953.7949 1645.1895,953.7949 Q1645.5176,953.7949 1645.7676,954.0605 Q1646.0332,954.3105 1646.0332,954.6543 Q1646.0332,954.998 1645.6895,955.4043 Q1645.1895,955.9824 1644.3926,956.3105 Q1643.3145,956.7637 1642.0176,956.7637 Q1640.502,956.7637 1639.2988,956.1387 Q1638.3145,955.6387 1637.627,954.5762 Q1636.9395,953.498 1636.9395,952.2168 L1636.9395,951.0605 Q1636.9395,949.7324 1637.5488,948.5918 Q1638.1738,947.4355 1639.2676,946.8262 Q1640.3613,946.2012 1641.5957,946.2012 Q1642.3301,946.2012 1642.9707,946.373 Q1643.627,946.5293 1644.1738,946.8887 Z " fill="#000000"/><text fill="#000000" font-family="sans-serif" font-size="14" lengthAdjust="spacing" textLength="78.6201" x="1661.9082" y="956.8105">LogoutSteps</text><line style="stroke:#181818;stroke-width:0.5;" x1="1536" x2="1833.9365" y1="967.0137" y2="967.0137"/><line style="stroke:#181818;stroke-width:0.5;" x1="1536" x2="1833.9365" y1="975.0137" y2="975.0137"/><ellipse cx="1546" cy="989.8242" fill="#84BE84" rx="3" ry="3" style="stroke:#038048;stroke-width:1.0;"/><text fill="#000000" font-family="sans-serif" font-size="14" lengthAdjust="spacing" textLength="182.8682" x="1555" y="994.1211">void LogoutFromApplication()</text><ellipse cx="1546" cy="1008.4453" fill="#84BE84" rx="3" ry="3" style="stroke:#038048;stroke-width:1.0;"/><text fill="#000000" font-family="sans-serif" font-size="14" lengthAdjust="spacing" textLength="229.5576" x="1555" y="1012.7422">void userClicksOnTheLogoutButton()</text><ellipse cx="1546" cy="1027.0664" fill="#84BE84" rx="3" ry="3" style="stroke:#038048;stroke-width:1.0;"/><text fill="#000000" font-family="sans-serif" font-size="14" lengthAdjust="spacing" textLength="189.082" x="1555" y="1031.3633">void userConfirmsTheLogout()</text><ellipse cx="1546" cy="1045.6875" fill="#84BE84" rx="3" ry="3" style="stroke:#038048;stroke-width:1.0;"/><text fill="#000000" font-family="sans-serif" font-size="14" lengthAdjust="spacing" textLength="273.9365" x="1555" y="1049.9844">void userShouldBeSuccessfullyLoggedOut()</text></g><!--class LoginSteps--><g id="elem_LoginSteps"><rect codeLine="46" fill="#F1F1F1" height="66.6211" id="LoginSteps" rx="2.5" ry="2.5" style="stroke:#181818;stroke-width:0.5;" width="316.2949" x="1870" y="962.5137"/><ellipse cx="1988.8701" cy="978.5137" fill="#ADD1B2" rx="11" ry="11" style="stroke:#181818;stroke-width:1.0;"/><path d="M1991.6357,974.3887 Q1991.792,974.1699 1991.9795,974.0605 Q1992.167,973.9512 1992.3857,973.9512 Q1992.7607,973.9512 1992.9951,974.2168 Q1993.2295,974.4668 1993.2295,975.0762 L1993.2295,976.5293 Q1993.2295,977.1387 1992.9951,977.4043 Q1992.7607,977.6699 1992.3857,977.6699 Q1992.042,977.6699 1991.8389,977.4668 Q1991.6357,977.2793 1991.5264,976.7637 Q1991.4795,976.4043 1991.292,976.2168 Q1990.9639,975.8418 1990.3545,975.623 Q1989.7451,975.4043 1989.1201,975.4043 Q1988.3545,975.4043 1987.7139,975.7324 Q1987.0889,976.0605 1986.5889,976.8105 Q1986.1045,977.5605 1986.1045,978.5918 L1986.1045,979.6855 Q1986.1045,980.9199 1986.9951,981.748 Q1987.8857,982.5605 1989.4795,982.5605 Q1990.417,982.5605 1991.0732,982.3105 Q1991.4639,982.1543 1991.8857,981.7168 Q1992.1514,981.4512 1992.292,981.373 Q1992.4482,981.2949 1992.6514,981.2949 Q1992.9795,981.2949 1993.2295,981.5605 Q1993.4951,981.8105 1993.4951,982.1543 Q1993.4951,982.498 1993.1514,982.9043 Q1992.6514,983.4824 1991.8545,983.8105 Q1990.7764,984.2637 1989.4795,984.2637 Q1987.9639,984.2637 1986.7607,983.6387 Q1985.7764,983.1387 1985.0889,982.0762 Q1984.4014,980.998 1984.4014,979.7168 L1984.4014,978.5605 Q1984.4014,977.2324 1985.0107,976.0918 Q1985.6357,974.9355 1986.7295,974.3262 Q1987.8232,973.7012 1989.0576,973.7012 Q1989.792,973.7012 1990.4326,973.873 Q1991.0889,974.0293 1991.6357,974.3887 Z " fill="#000000"/><text fill="#000000" font-family="sans-serif" font-size="14" lengthAdjust="spacing" textLength="70.0547" x="2009.3701" y="984.3105">LoginSteps</text><line style="stroke:#181818;stroke-width:0.5;" x1="1871" x2="2185.2949" y1="994.5137" y2="994.5137"/><line style="stroke:#181818;stroke-width:0.5;" x1="1871" x2="2185.2949" y1="1002.5137" y2="1002.5137"/><ellipse cx="1881" cy="1017.3242" fill="#84BE84" rx="3" ry="3" style="stroke:#038048;stroke-width:1.0;"/><text fill="#000000" font-family="sans-serif" font-size="14" lengthAdjust="spacing" textLength="290.2949" x="1890" y="1021.6211">void userIsLoggedIntoTheBankingApplication()</text></g><!--class LoginPage--><g id="elem_LoginPage"><rect codeLine="10" fill="#F1F1F1" height="159.7266" id="LoginPage" rx="2.5" ry="2.5" style="stroke:#181818;stroke-width:0.5;" width="249.3301" x="750.5" y="603.0137"/><ellipse cx="837.4395" cy="619.0137" fill="#ADD1B2" rx="11" ry="11" style="stroke:#181818;stroke-width:1.0;"/><path d="M840.2051,614.8887 Q840.3613,614.6699 840.5488,614.5605 Q840.7363,614.4512 840.9551,614.4512 Q841.3301,614.4512 841.5645,614.7168 Q841.7988,614.9668 841.7988,615.5762 L841.7988,617.0293 Q841.7988,617.6387 841.5645,617.9043 Q841.3301,618.1699 840.9551,618.1699 Q840.6113,618.1699 840.4082,617.9668 Q840.2051,617.7793 840.0957,617.2637 Q840.0488,616.9043 839.8613,616.7168 Q839.5332,616.3418 838.9238,616.123 Q838.3145,615.9043 837.6895,615.9043 Q836.9238,615.9043 836.2832,616.2324 Q835.6582,616.5605 835.1582,617.3105 Q834.6738,618.0605 834.6738,619.0918 L834.6738,620.1855 Q834.6738,621.4199 835.5645,622.248 Q836.4551,623.0605 838.0488,623.0605 Q838.9863,623.0605 839.6426,622.8105 Q840.0332,622.6543 840.4551,622.2168 Q840.7207,621.9512 840.8613,621.873 Q841.0176,621.7949 841.2207,621.7949 Q841.5488,621.7949 841.7988,622.0605 Q842.0645,622.3105 842.0645,622.6543 Q842.0645,622.998 841.7207,623.4043 Q841.2207,623.9824 840.4238,624.3105 Q839.3457,624.7637 838.0488,624.7637 Q836.5332,624.7637 835.3301,624.1387 Q834.3457,623.6387 833.6582,622.5762 Q832.9707,621.498 832.9707,620.2168 L832.9707,619.0605 Q832.9707,617.7324 833.5801,616.5918 Q834.2051,615.4355 835.2988,614.8262 Q836.3926,614.2012 837.627,614.2012 Q838.3613,614.2012 839.002,614.373 Q839.6582,614.5293 840.2051,614.8887 Z " fill="#000000"/><text fill="#000000" font-family="sans-serif" font-size="14" lengthAdjust="spacing" textLength="66.9512" x="857.9395" y="624.8105">LoginPage</text><line style="stroke:#181818;stroke-width:0.5;" x1="751.5" x2="998.8301" y1="635.0137" y2="635.0137"/><rect fill="none" height="6" style="stroke:#C82930;stroke-width:1.0;" width="6" x="758.5" y="646.8242"/><text fill="#000000" font-family="sans-serif" font-size="14" lengthAdjust="spacing" textLength="223.3301" x="770.5" y="654.1211">WebElementFacade usernameField</text><rect fill="none" height="6" style="stroke:#C82930;stroke-width:1.0;" width="6" x="758.5" y="665.4453"/><text fill="#000000" font-family="sans-serif" font-size="14" lengthAdjust="spacing" textLength="220.9922" x="770.5" y="672.7422">WebElementFacade passwordField</text><rect fill="none" height="6" style="stroke:#C82930;stroke-width:1.0;" width="6" x="758.5" y="684.0664"/><text fill="#000000" font-family="sans-serif" font-size="14" lengthAdjust="spacing" textLength="200.7852" x="770.5" y="691.3633">WebElementFacade loginButton</text><line style="stroke:#181818;stroke-width:0.5;" x1="751.5" x2="998.8301" y1="698.877" y2="698.877"/><ellipse cx="761.5" cy="713.6875" fill="#84BE84" rx="3" ry="3" style="stroke:#038048;stroke-width:1.0;"/><text fill="#000000" font-family="sans-serif" font-size="14" lengthAdjust="spacing" textLength="171.958" x="770.5" y="717.9844">void enterUsername(String)</text><ellipse cx="761.5" cy="732.3086" fill="#84BE84" rx="3" ry="3" style="stroke:#038048;stroke-width:1.0;"/><text fill="#000000" font-family="sans-serif" font-size="14" lengthAdjust="spacing" textLength="168.8477" x="770.5" y="736.6055">void enterPassword(String)</text><ellipse cx="761.5" cy="750.9297" fill="#84BE84" rx="3" ry="3" style="stroke:#038048;stroke-width:1.0;"/><text fill="#000000" font-family="sans-serif" font-size="14" lengthAdjust="spacing" textLength="140.8477" x="770.5" y="755.2266">void clickLoginButton()</text></g><!--class LogoutPage--><g id="elem_LogoutPage"><rect codeLine="36" fill="#F1F1F1" height="159.7266" id="LogoutPage" rx="2.5" ry="2.5" style="stroke:#181818;stroke-width:0.5;" width="285.9229" x="429" y="603.0137"/><ellipse cx="529.9531" cy="619.0137" fill="#ADD1B2" rx="11" ry="11" style="stroke:#181818;stroke-width:1.0;"/><path d="M532.7188,614.8887 Q532.875,614.6699 533.0625,614.5605 Q533.25,614.4512 533.4688,614.4512 Q533.8438,614.4512 534.0781,614.7168 Q534.3125,614.9668 534.3125,615.5762 L534.3125,617.0293 Q534.3125,617.6387 534.0781,617.9043 Q533.8438,618.1699 533.4688,618.1699 Q533.125,618.1699 532.9219,617.9668 Q532.7188,617.7793 532.6094,617.2637 Q532.5625,616.9043 532.375,616.7168 Q532.0469,616.3418 531.4375,616.123 Q530.8281,615.9043 530.2031,615.9043 Q529.4375,615.9043 528.7969,616.2324 Q528.1719,616.5605 527.6719,617.3105 Q527.1875,618.0605 527.1875,619.0918 L527.1875,620.1855 Q527.1875,621.4199 528.0781,622.248 Q528.9688,623.0605 530.5625,623.0605 Q531.5,623.0605 532.1563,622.8105 Q532.5469,622.6543 532.9688,622.2168 Q533.2344,621.9512 533.375,621.873 Q533.5313,621.7949 533.7344,621.7949 Q534.0625,621.7949 534.3125,622.0605 Q534.5781,622.3105 534.5781,622.6543 Q534.5781,622.998 534.2344,623.4043 Q533.7344,623.9824 532.9375,624.3105 Q531.8594,624.7637 530.5625,624.7637 Q529.0469,624.7637 527.8438,624.1387 Q526.8594,623.6387 526.1719,622.5762 Q525.4844,621.498 525.4844,620.2168 L525.4844,619.0605 Q525.4844,617.7324 526.0938,616.5918 Q526.7188,615.4355 527.8125,614.8262 Q528.9063,614.2012 530.1406,614.2012 Q530.875,614.2012 531.5156,614.373 Q532.1719,614.5293 532.7188,614.8887 Z " fill="#000000"/><text fill="#000000" font-family="sans-serif" font-size="14" lengthAdjust="spacing" textLength="75.5166" x="550.4531" y="624.8105">LogoutPage</text><line style="stroke:#181818;stroke-width:0.5;" x1="430" x2="713.9229" y1="635.0137" y2="635.0137"/><rect fill="none" height="6" style="stroke:#C82930;stroke-width:1.0;" width="6" x="437" y="646.8242"/><text fill="#000000" font-family="sans-serif" font-size="14" lengthAdjust="spacing" textLength="209.3506" x="449" y="654.1211">WebElementFacade logoutButton</text><rect fill="none" height="6" style="stroke:#C82930;stroke-width:1.0;" width="6" x="437" y="665.4453"/><text fill="#000000" font-family="sans-serif" font-size="14" lengthAdjust="spacing" textLength="248.2402" x="449" y="672.7422">WebElementFacade logoutConfirmation</text><rect fill="none" height="6" style="stroke:#C82930;stroke-width:1.0;" width="6" x="437" y="684.0664"/><text fill="#000000" font-family="sans-serif" font-size="14" lengthAdjust="spacing" textLength="259.9229" x="449" y="691.3633">WebElementFacade confirmLogoutButton</text><line style="stroke:#181818;stroke-width:0.5;" x1="430" x2="713.9229" y1="698.877" y2="698.877"/><ellipse cx="440" cy="713.6875" fill="#84BE84" rx="3" ry="3" style="stroke:#038048;stroke-width:1.0;"/><text fill="#000000" font-family="sans-serif" font-size="14" lengthAdjust="spacing" textLength="149.4131" x="449" y="717.9844">void clickLogoutButton()</text><ellipse cx="440" cy="732.3086" fill="#84BE84" rx="3" ry="3" style="stroke:#038048;stroke-width:1.0;"/><text fill="#000000" font-family="sans-serif" font-size="14" lengthAdjust="spacing" textLength="127.6133" x="449" y="736.6055">void confirmLogout()</text><ellipse cx="440" cy="750.9297" fill="#84BE84" rx="3" ry="3" style="stroke:#038048;stroke-width:1.0;"/><text fill="#000000" font-family="sans-serif" font-size="14" lengthAdjust="spacing" textLength="180.5508" x="449" y="755.2266">boolean isLogoutConfirmed()</text></g><!--class TransferPage--><g id="elem_TransferPage"><rect codeLine="50" fill="#F1F1F1" height="345.9375" id="TransferPage" rx="2.5" ry="2.5" style="stroke:#181818;stroke-width:0.5;" width="299.1299" x="94.5" y="510.0137"/><ellipse cx="197.4048" cy="526.0137" fill="#ADD1B2" rx="11" ry="11" style="stroke:#181818;stroke-width:1.0;"/><path d="M200.1704,521.8887 Q200.3267,521.6699 200.5142,521.5605 Q200.7017,521.4512 200.9204,521.4512 Q201.2954,521.4512 201.5298,521.7168 Q201.7642,521.9668 201.7642,522.5762 L201.7642,524.0293 Q201.7642,524.6387 201.5298,524.9043 Q201.2954,525.1699 200.9204,525.1699 Q200.5767,525.1699 200.3735,524.9668 Q200.1704,524.7793 200.061,524.2637 Q200.0142,523.9043 199.8267,523.7168 Q199.4985,523.3418 198.8892,523.123 Q198.2798,522.9043 197.6548,522.9043 Q196.8892,522.9043 196.2485,523.2324 Q195.6235,523.5605 195.1235,524.3105 Q194.6392,525.0605 194.6392,526.0918 L194.6392,527.1855 Q194.6392,528.4199 195.5298,529.248 Q196.4204,530.0605 198.0142,530.0605 Q198.9517,530.0605 199.6079,529.8105 Q199.9985,529.6543 200.4204,529.2168 Q200.686,528.9512 200.8267,528.873 Q200.9829,528.7949 201.186,528.7949 Q201.5142,528.7949 201.7642,529.0605 Q202.0298,529.3105 202.0298,529.6543 Q202.0298,529.998 201.686,530.4043 Q201.186,530.9824 200.3892,531.3105 Q199.311,531.7637 198.0142,531.7637 Q196.4985,531.7637 195.2954,531.1387 Q194.311,530.6387 193.6235,529.5762 Q192.936,528.498 192.936,527.2168 L192.936,526.0605 Q192.936,524.7324 193.5454,523.5918 Q194.1704,522.4355 195.2642,521.8262 Q196.3579,521.2012 197.5923,521.2012 Q198.3267,521.2012 198.9673,521.373 Q199.6235,521.5293 200.1704,521.8887 Z " fill="#000000"/><text fill="#000000" font-family="sans-serif" font-size="14" lengthAdjust="spacing" textLength="84.8203" x="217.9048" y="531.8105">TransferPage</text><line style="stroke:#181818;stroke-width:0.5;" x1="95.5" x2="392.6299" y1="542.0137" y2="542.0137"/><rect fill="none" height="6" style="stroke:#C82930;stroke-width:1.0;" width="6" x="102.5" y="553.8242"/><text fill="#000000" font-family="sans-serif" font-size="14" lengthAdjust="spacing" textLength="251.3643" x="114.5" y="561.1211">WebElementFacade transferPageButton</text><rect fill="none" height="6" style="stroke:#C82930;stroke-width:1.0;" width="6" x="102.5" y="572.4453"/><text fill="#000000" font-family="sans-serif" font-size="14" lengthAdjust="spacing" textLength="273.1299" x="114.5" y="579.7422">WebElementFacade transferTypeDropdown</text><rect fill="none" height="6" style="stroke:#C82930;stroke-width:1.0;" width="6" x="102.5" y="591.0664"/><text fill="#000000" font-family="sans-serif" font-size="14" lengthAdjust="spacing" textLength="207.7715" x="114.5" y="598.3633">WebElementFacade amountField</text><rect fill="none" height="6" style="stroke:#C82930;stroke-width:1.0;" width="6" x="102.5" y="609.6875"/><text fill="#000000" font-family="sans-serif" font-size="14" lengthAdjust="spacing" textLength="264.5781" x="114.5" y="616.9844">WebElementFacade recipientAccountField</text><rect fill="none" height="6" style="stroke:#C82930;stroke-width:1.0;" width="6" x="102.5" y="628.3086"/><text fill="#000000" font-family="sans-serif" font-size="14" lengthAdjust="spacing" textLength="264.5645" x="114.5" y="635.6055">WebElementFacade submitTransferButton</text><rect fill="none" height="6" style="stroke:#C82930;stroke-width:1.0;" width="6" x="102.5" y="646.9297"/><text fill="#000000" font-family="sans-serif" font-size="14" lengthAdjust="spacing" textLength="269.2266" x="114.5" y="654.2266">WebElementFacade confirmTransferButton</text><rect fill="none" height="6" style="stroke:#C82930;stroke-width:1.0;" width="6" x="102.5" y="665.5508"/><text fill="#000000" font-family="sans-serif" font-size="14" lengthAdjust="spacing" textLength="217.8818" x="114.5" y="672.8477">WebElementFacade transferStatus</text><rect fill="none" height="6" style="stroke:#C82930;stroke-width:1.0;" width="6" x="102.5" y="684.1719"/><text fill="#000000" font-family="sans-serif" font-size="14" lengthAdjust="spacing" textLength="217.0957" x="114.5" y="691.4688">WebElementFacade errorMessage</text><line style="stroke:#181818;stroke-width:0.5;" x1="95.5" x2="392.6299" y1="698.9824" y2="698.9824"/><ellipse cx="105.5" cy="713.793" fill="#84BE84" rx="3" ry="3" style="stroke:#038048;stroke-width:1.0;"/><text fill="#000000" font-family="sans-serif" font-size="14" lengthAdjust="spacing" textLength="154.8613" x="114.5" y="718.0898">void openTransferPage()</text><ellipse cx="105.5" cy="732.4141" fill="#84BE84" rx="3" ry="3" style="stroke:#038048;stroke-width:1.0;"/><text fill="#000000" font-family="sans-serif" font-size="14" lengthAdjust="spacing" textLength="203.8613" x="114.5" y="736.7109">void chooseTransferType(String)</text><ellipse cx="105.5" cy="751.0352" fill="#84BE84" rx="3" ry="3" style="stroke:#038048;stroke-width:1.0;"/><text fill="#000000" font-family="sans-serif" font-size="14" lengthAdjust="spacing" textLength="161.0957" x="114.5" y="755.332">void enterAmount(double)</text><ellipse cx="105.5" cy="769.6563" fill="#84BE84" rx="3" ry="3" style="stroke:#038048;stroke-width:1.0;"/><text fill="#000000" font-family="sans-serif" font-size="14" lengthAdjust="spacing" textLength="216.3301" x="114.5" y="773.9531">void enterRecipientAccount(String)</text><ellipse cx="105.5" cy="788.2773" fill="#84BE84" rx="3" ry="3" style="stroke:#038048;stroke-width:1.0;"/><text fill="#000000" font-family="sans-serif" font-size="14" lengthAdjust="spacing" textLength="161.8135" x="114.5" y="792.5742">void clickSubmitTransfer()</text><ellipse cx="105.5" cy="806.8984" fill="#84BE84" rx="3" ry="3" style="stroke:#038048;stroke-width:1.0;"/><text fill="#000000" font-family="sans-serif" font-size="14" lengthAdjust="spacing" textLength="136.917" x="114.5" y="811.1953">void confirmTransfer()</text><ellipse cx="105.5" cy="825.5195" fill="#84BE84" rx="3" ry="3" style="stroke:#038048;stroke-width:1.0;"/><text fill="#000000" font-family="sans-serif" font-size="14" lengthAdjust="spacing" textLength="161.0615" x="114.5" y="829.8164">String getTransferStatus()</text><ellipse cx="105.5" cy="844.1406" fill="#84BE84" rx="3" ry="3" style="stroke:#038048;stroke-width:1.0;"/><text fill="#000000" font-family="sans-serif" font-size="14" lengthAdjust="spacing" textLength="157.165" x="114.5" y="848.4375">String getErrorMessage()</text></g><!--class PageObject--><g id="elem_PageObject"><rect fill="#F1F1F1" height="48" id="PageObject" rx="2.5" ry="2.5" style="stroke:#181818;stroke-width:0.5;" width="105.1582" x="519.5" y="178.0137"/><ellipse cx="534.5" cy="194.0137" fill="#ADD1B2" rx="11" ry="11" style="stroke:#181818;stroke-width:1.0;"/><path d="M537.2656,189.8887 Q537.4219,189.6699 537.6094,189.5605 Q537.7969,189.4512 538.0156,189.4512 Q538.3906,189.4512 538.625,189.7168 Q538.8594,189.9668 538.8594,190.5762 L538.8594,192.0293 Q538.8594,192.6387 538.625,192.9043 Q538.3906,193.1699 538.0156,193.1699 Q537.6719,193.1699 537.4688,192.9668 Q537.2656,192.7793 537.1563,192.2637 Q537.1094,191.9043 536.9219,191.7168 Q536.5938,191.3418 535.9844,191.123 Q535.375,190.9043 534.75,190.9043 Q533.9844,190.9043 533.3438,191.2324 Q532.7188,191.5605 532.2188,192.3105 Q531.7344,193.0605 531.7344,194.0918 L531.7344,195.1855 Q531.7344,196.4199 532.625,197.248 Q533.5156,198.0605 535.1094,198.0605 Q536.0469,198.0605 536.7031,197.8105 Q537.0938,197.6543 537.5156,197.2168 Q537.7813,196.9512 537.9219,196.873 Q538.0781,196.7949 538.2813,196.7949 Q538.6094,196.7949 538.8594,197.0605 Q539.125,197.3105 539.125,197.6543 Q539.125,197.998 538.7813,198.4043 Q538.2813,198.9824 537.4844,199.3105 Q536.4063,199.7637 535.1094,199.7637 Q533.5938,199.7637 532.3906,199.1387 Q531.4063,198.6387 530.7188,197.5762 Q530.0313,196.498 530.0313,195.2168 L530.0313,194.0605 Q530.0313,192.7324 530.6406,191.5918 Q531.2656,190.4355 532.3594,189.8262 Q533.4531,189.2012 534.6875,189.2012 Q535.4219,189.2012 536.0625,189.373 Q536.7188,189.5293 537.2656,189.8887 Z " fill="#000000"/><text fill="#000000" font-family="sans-serif" font-size="14" lengthAdjust="spacing" textLength="73.1582" x="548.5" y="199.8105">PageObject</text><line style="stroke:#181818;stroke-width:0.5;" x1="520.5" x2="623.6582" y1="210.0137" y2="210.0137"/><line style="stroke:#181818;stroke-width:0.5;" x1="520.5" x2="623.6582" y1="218.0137" y2="218.0137"/></g><!--reverse link PageObject to LoginPage--><g id="link_PageObject_LoginPage"><path codeLine="72" d="M626.8808,235.7982 C662.5508,258.3682 699.05,286.0137 732,330.0137 C794.28,413.1637 834.06,527.2337 855.44,602.7137 " fill="none" id="PageObject-backto-LoginPage" style="stroke:#181818;stroke-width:1.0;"/><polygon fill="none" points="611.67,226.1737,623.6726,240.8685,630.089,230.728,611.67,226.1737" style="stroke:#181818;stroke-width:1.0;"/></g><!--reverse link BaseSteps to BankTransferSteps--><g id="link_BaseSteps_BankTransferSteps"><path codeLine="73" d="M1567.207,774.0218 C1505.967,820.8118 1442.96,868.9637 1381.7,915.7737 " fill="none" id="BaseSteps-backto-BankTransferSteps" style="stroke:#181818;stroke-width:1.0;"/><polygon fill="none" points="1581.51,763.0937,1563.5643,769.2541,1570.8497,778.7895,1581.51,763.0937" style="stroke:#181818;stroke-width:1.0;"/></g><!--reverse link BaseSteps to LogoutSteps--><g id="link_BaseSteps_LogoutSteps"><path codeLine="74" d="M1685,781.2937 C1685,834.5637 1685,885.6937 1685,934.5337 " fill="none" id="BaseSteps-backto-LogoutSteps" style="stroke:#181818;stroke-width:1.0;"/><polygon fill="none" points="1685,763.2937,1679,781.2937,1691,781.2937,1685,763.2937" style="stroke:#181818;stroke-width:1.0;"/></g><!--reverse link PageObject to LogoutPage--><g id="link_PageObject_LogoutPage"><path codeLine="75" d="M572,244.1137 C572,311.3037 572,490.9037 572,602.6537 " fill="none" id="PageObject-backto-LogoutPage" style="stroke:#181818;stroke-width:1.0;"/><polygon fill="none" points="572,226.1137,566,244.1137,578,244.1137,572,226.1137" style="stroke:#181818;stroke-width:1.0;"/></g><!--reverse link BaseSteps to LoginSteps--><g id="link_BaseSteps_LoginSteps"><path codeLine="76" d="M1785.7748,775.3843 C1856.8348,839.8143 1940.13,915.3437 1991.83,962.2237 " fill="none" id="BaseSteps-backto-LoginSteps" style="stroke:#181818;stroke-width:1.0;"/><polygon fill="none" points="1772.44,763.2937,1781.7446,779.8292,1789.805,770.9394,1772.44,763.2937" style="stroke:#181818;stroke-width:1.0;"/></g><!--reverse link PageObject to TransferPage--><g id="link_PageObject_TransferPage"><path codeLine="77" d="M518.1914,235.8559 C482.6814,258.6459 445.62,286.5837 411,330.0137 C368.42,383.4337 333.44,449.4937 306.7,509.9037 " fill="none" id="PageObject-backto-TransferPage" style="stroke:#181818;stroke-width:1.0;"/><polygon fill="none" points="533.34,226.1337,514.9507,230.8064,521.4322,240.9054,533.34,226.1337" style="stroke:#181818;stroke-width:1.0;"/></g><!--SRC=[hLNBRjim4BphAtHqq4PVq8lSs801jmuY5pbJv5fYGf42bqnWkFdtKazJYbG5I6uaPxZSdNsG2e8OKbL4y1GPJIIUG6E41agCrWGXgLRX9VWM_YOlF2C6OcguaXZAuTun4Y2QvXsE_gv77m2jC0bda1BTSWPdZhbN6PVt98DGT2jtUcozgm7ZRPeRofhkIhiCteA0JiTNEXYZwpkNu3PyX7GZe01fjeGI1g55q98KiEKWs1IXTBPVbMQpXDhzjJL6IUVaY-8iT23eFwtbLM8qbzdD0BnlhOv1AZXztbyjhcwg0ESYx38edplThfcipI48eAO3Z-TosfkES0U6S86nP8bD2svMJDbKmFVH7Qp1xjAgFw-qt5JsS6JmaPjy9z6UJfpoIZah6SuODpdqmUJA2hP-vtFrJeCb0B7SQAtqBq1qIUwfRmkYDSKqagivt6fLn6NfCa6giXx6zxDA41xaCOU6tUV99obvuhh0dhIQy7qDYQNKkNsoGfmTBmDsgAaVAEck4Iup5TaxDe-tJjOnJh5eW_jHZgjq8lp1hVeuLKe0aI77lVyki8_KTjqAeonL4kwm4MmdZN8gLotWqZxCsfACWrapAQG_WERbD5vxtMbLClKwoIE5icupDqSqK5vMtH5J-b_YiFtc_MfJiKmq_V0Wnk8K0xmMwzAWIf2-X5uDv4eXB4wTkDQZ7GD3w66anUIOJ6R6q2Zk6cZkXncOuo3O4JWO9Krv1e444xcI0ydDEMKieaf3Mq9Lt8VqoStOyCVVszl5FoXO_8IdpSmC-i-PyqRWryJOVScVzQhj-2zmog_FVm00]--></g></svg>